<svg width="60" height="60" viewBox="0 0 60 60" fill="none" xmlns="http://www.w3.org/2000/svg">
<circle cx="30" cy="30" r="30" fill="#B90E0A"/>
<path d="M45.5 18.1602V14.4139C45.5 11.6592 43.2575 9.41895 40.5 9.41895C37.7425 9.41895 35.5 11.6592 35.5 14.4139V18.1602C34.1212 18.1602 33 19.2816 33 20.6577V28.1502C33 29.5276 34.1212 30.6477 35.5 30.6477H45.5C46.8788 30.6477 48 29.5276 48 28.1502V20.6577C48 19.2816 46.8788 18.1602 45.5 18.1602ZM38 14.4139C38 13.0378 39.1212 11.9164 40.5 11.9164C41.8788 11.9164 43 13.0378 43 14.4139V18.1602H38V14.4139ZM35.5 28.1502V20.6577H45.5V28.1502H35.5ZM30.5 45.6327H28V39.389C27.999 38.3957 27.6036 37.4434 26.9006 36.7411C26.1975 36.0387 25.2443 35.6437 24.25 35.6427H19.25C18.2557 35.6437 17.3025 36.0387 16.5994 36.7411C15.8964 37.4434 15.501 38.3957 15.5 39.389V45.6327H13V39.389C13.002 37.7336 13.6611 36.1467 14.8328 34.9762C16.0044 33.8057 17.593 33.1472 19.25 33.1452H24.25C25.907 33.1472 27.4956 33.8057 28.6672 34.9762C29.8389 36.1467 30.498 37.7336 30.5 39.389V45.6327ZM21.75 20.6577C22.7446 20.6577 23.6984 21.0524 24.4017 21.755C25.1049 22.4575 25.5 23.4104 25.5 24.404C25.5 25.3975 25.1049 26.3504 24.4017 27.053C23.6984 27.7555 22.7446 28.1502 21.75 28.1502C20.7554 28.1502 19.8016 27.7555 19.0983 27.053C18.3951 26.3504 18 25.3975 18 24.404C18 23.4104 18.3951 22.4575 19.0983 21.755C19.8016 21.0524 20.7554 20.6577 21.75 20.6577ZM21.75 18.1602C20.0924 18.1602 18.5027 18.818 17.3306 19.989C16.1585 21.1599 15.5 22.748 15.5 24.404C15.5 26.0599 16.1585 27.648 17.3306 28.819C18.5027 29.9899 20.0924 30.6477 21.75 30.6477C23.4076 30.6477 24.9973 29.9899 26.1694 28.819C27.3415 27.648 28 26.0599 28 24.404C28 22.748 27.3415 21.1599 26.1694 19.989C24.9973 18.818 23.4076 18.1602 21.75 18.1602Z" fill="white"/>
</svg>
