<svg width="40" height="41" viewBox="0 0 40 41" fill="none" xmlns="http://www.w3.org/2000/svg">
<path d="M20 40.4571C8.954 40.4571 0 31.5121 0 20.4771C0 9.44212 8.954 0.49707 20 0.49707C31.046 0.49707 40 9.44212 40 20.4771C40 31.5121 31.046 40.4571 20 40.4571ZM20 36.4611C24.2435 36.4611 28.3131 34.7771 31.3137 31.7795C34.3143 28.7819 36 24.7163 36 20.4771C36 16.2379 34.3143 12.1723 31.3137 9.17468C28.3131 6.1771 24.2435 4.49307 20 4.49307C15.7565 4.49307 11.6869 6.1771 8.68629 9.17468C5.68571 12.1723 4 16.2379 4 20.4771C4 24.7163 5.68571 28.7819 8.68629 31.7795C11.6869 34.7771 15.7565 36.4611 20 36.4611ZM20 10.4871C20.5304 10.4871 21.0391 10.6976 21.4142 11.0723C21.7893 11.447 22 11.9552 22 12.4851V22.4751C22 23.005 21.7893 23.5132 21.4142 23.8879C21.0391 24.2626 20.5304 24.4731 20 24.4731C19.4696 24.4731 18.9609 24.2626 18.5858 23.8879C18.2107 23.5132 18 23.005 18 22.4751V12.4851C18 11.9552 18.2107 11.447 18.5858 11.0723C18.9609 10.6976 19.4696 10.4871 20 10.4871ZM20 30.4671C19.4696 30.4671 18.9609 30.2566 18.5858 29.8819C18.2107 29.5072 18 28.999 18 28.4691C18 27.9392 18.2107 27.431 18.5858 27.0563C18.9609 26.6816 19.4696 26.4711 20 26.4711C20.5304 26.4711 21.0391 26.6816 21.4142 27.0563C21.7893 27.431 22 27.9392 22 28.4691C22 28.999 21.7893 29.5072 21.4142 29.8819C21.0391 30.2566 20.5304 30.4671 20 30.4671Z" fill="white"/>
</svg>
