<svg width="200" height="200" viewBox="0 0 200 200" fill="none" xmlns="http://www.w3.org/2000/svg">
<g clip-path="url(#clip0_2724_173)">
<path d="M175.8 0H178.125C190.2 0 200 9.8 200 21.875V24.2C199.992 53.205 188.464 81.0193 167.95 101.525L162.225 107.263C158.292 111.188 154.213 114.954 149.988 118.562V158.65C149.988 166.25 146.05 173.3 139.575 177.275L104.9 198.612C103.681 199.363 102.307 199.824 100.882 199.961C99.4577 200.098 98.0206 199.907 96.6812 199.403C95.3418 198.898 94.1357 198.094 93.1553 197.051C92.1748 196.009 91.4462 194.755 91.0251 193.387L79.1001 154.613C78.4473 154.151 77.8404 153.628 77.2876 153.05L46.9251 122.7C46.3518 122.147 45.8328 121.54 45.3751 120.887L6.60006 108.963C5.2322 108.541 3.97891 107.813 2.93625 106.832C1.8936 105.852 1.08925 104.646 0.58487 103.306C0.0804883 101.967 -0.110539 100.53 0.026431 99.1053C0.163401 97.6806 0.62473 96.3063 1.37506 95.0875L22.7501 60.4125C24.7073 57.2312 27.4466 54.604 30.7069 52.7813C33.9672 50.9586 37.6399 50.0011 41.3751 50H81.4251C85.0334 45.7667 88.8001 41.6875 92.7251 37.7625L98.4626 32.0375C118.973 11.5254 146.792 0.00122221 175.8 0ZM111.725 45.2875H111.7L105.975 51.0125C96.4751 60.5125 88.0126 70.9875 80.7251 82.2625L61.9751 111.225L88.7626 138.013L117.725 119.263C129 111.975 139.475 103.512 148.963 94.0125L154.7 88.2875C163.115 79.871 169.79 69.8794 174.343 58.8832C178.896 47.887 181.239 36.1016 181.238 24.2V21.875C181.238 21.0462 180.908 20.2513 180.322 19.6653C179.736 19.0792 178.941 18.75 178.113 18.75H175.788C151.76 18.7535 128.717 28.2989 111.725 45.2875ZM44.5001 182C35.3501 191.15 15.3251 195.063 6.93756 196.35C6.48532 196.427 6.02128 196.394 5.58419 196.255C5.1471 196.116 4.74966 195.874 4.42506 195.55C4.10095 195.225 3.85921 194.828 3.72004 194.391C3.58087 193.954 3.5483 193.49 3.62506 193.037C4.91256 184.65 8.82506 164.625 18.0001 155.5C19.6965 153.577 21.7689 152.022 24.0895 150.931C26.4101 149.839 28.9296 149.235 31.4927 149.155C34.0558 149.075 36.6081 149.52 38.9923 150.465C41.3766 151.409 43.5421 152.831 45.3553 154.645C47.1686 156.458 48.5912 158.624 49.5354 161.008C50.4796 163.392 50.9254 165.944 50.8452 168.507C50.7651 171.07 50.1608 173.59 49.0695 175.911C47.9782 178.231 46.4231 180.304 44.5001 182ZM131.25 132.812C130.15 133.562 129.042 134.292 127.925 135L98.5501 154.013L105.4 176.3L129.763 161.3C130.217 161.02 130.593 160.629 130.853 160.163C131.114 159.696 131.25 159.171 131.25 158.637V132.812ZM45.9751 101.45L65.0001 72.075C65.7251 70.95 66.4584 69.8417 67.2001 68.75H41.3626C40.8287 68.7498 40.3036 68.8865 39.8375 69.1469C39.3714 69.4073 38.9798 69.7828 38.7001 70.2375L23.7001 94.6125L45.9751 101.45ZM150 62.5C150 65.8152 148.683 68.9946 146.339 71.3388C143.995 73.683 140.815 75 137.5 75C134.185 75 131.005 73.683 128.661 71.3388C126.317 68.9946 125 65.8152 125 62.5C125 59.1848 126.317 56.0054 128.661 53.6612C131.005 51.317 134.185 50 137.5 50C140.815 50 143.995 51.317 146.339 53.6612C148.683 56.0054 150 59.1848 150 62.5Z" fill="white"/>
</g>
<defs>
<clipPath id="clip0_2724_173">
<rect width="200" height="200" fill="white"/>
</clipPath>
</defs>
</svg>
