<svg width="200" height="200" viewBox="0 0 200 200" fill="none" xmlns="http://www.w3.org/2000/svg">
<path d="M175 166.667H166.667V41.667C166.667 39.4569 165.789 37.3372 164.226 35.7744C162.663 34.2116 160.544 33.3337 158.334 33.3337C156.124 33.3337 154.004 34.2116 152.441 35.7744C150.878 37.3372 150 39.4569 150 41.667V166.667H133.334V75.0003C133.334 72.7902 132.456 70.6706 130.893 69.1078C129.33 67.545 127.21 66.667 125 66.667C122.79 66.667 120.671 67.545 119.108 69.1078C117.545 70.6706 116.667 72.7902 116.667 75.0003V166.667H100V108.334C100 106.124 99.1224 104.004 97.5596 102.441C95.9968 100.878 93.8771 100 91.667 100C89.4569 100 87.3372 100.878 85.7744 102.441C84.2116 104.004 83.3337 106.124 83.3337 108.334V166.667H66.667V141.667C66.667 139.457 65.789 137.337 64.2262 135.774C62.6634 134.212 60.5438 133.334 58.3337 133.334C56.1235 133.334 54.0039 134.212 52.4411 135.774C50.8783 137.337 50.0003 139.457 50.0003 141.667V166.667H33.3337V25.0003C33.3337 22.7902 32.4557 20.6706 30.8929 19.1078C29.3301 17.545 27.2105 16.667 25.0003 16.667C22.7902 16.667 20.6706 17.545 19.1078 19.1078C17.545 20.6706 16.667 22.7902 16.667 25.0003V175C16.667 177.21 17.545 179.33 19.1078 180.893C20.6706 182.456 22.7902 183.334 25.0003 183.334H175C177.21 183.334 179.33 182.456 180.893 180.893C182.456 179.33 183.334 177.21 183.334 175C183.334 172.79 182.456 170.671 180.893 169.108C179.33 167.545 177.21 166.667 175 166.667Z" fill="white"/>
</svg>
