<svg width="40" height="44" viewBox="0 0 40 44" fill="none" xmlns="http://www.w3.org/2000/svg">
<path d="M29.3466 2.49258C29.3466 1.96334 29.5571 1.45577 29.9317 1.08154C30.3063 0.707311 30.8144 0.49707 31.3441 0.49707H38.0025C38.5323 0.49707 39.0403 0.707311 39.4149 1.08154C39.7895 1.45577 40 1.96334 40 2.49258V9.14429C40 9.67354 39.7895 10.1811 39.4149 10.5553C39.0403 10.9296 38.5323 11.1398 38.0025 11.1398C37.4727 11.1398 36.9646 10.9296 36.59 10.5553C36.2154 10.1811 36.005 9.67354 36.005 9.14429V7.30842L24.0998 19.2017C23.7253 19.5754 23.2176 19.7853 22.6883 19.7853C22.1589 19.7853 21.6512 19.5754 21.2767 19.2017L14.6982 12.6298L3.45891 23.8579C3.27604 24.0539 3.05551 24.2112 2.81049 24.3203C2.56546 24.4293 2.30095 24.488 2.03275 24.4927C1.76454 24.4974 1.49813 24.4481 1.2494 24.3478C1.00068 24.2474 0.774737 24.098 0.585057 23.9085C0.395377 23.719 0.245844 23.4933 0.14538 23.2448C0.0449162 22.9964 -0.00442132 22.7302 0.000310869 22.4623C0.00504306 22.1943 0.0637485 21.9301 0.172924 21.6853C0.2821 21.4405 0.439509 21.2202 0.635763 21.0376L13.2866 8.3993C13.6612 8.02561 14.1689 7.81571 14.6982 7.81571C15.2276 7.81571 15.7353 8.02561 16.1098 8.3993L22.6883 14.9712L33.1818 4.4881H31.3441C30.8144 4.4881 30.3063 4.27786 29.9317 3.90362C29.5571 3.52939 29.3466 3.02183 29.3466 2.49258ZM2.04734 32.4253C2.57711 32.4253 3.08518 32.6355 3.45979 33.0097C3.83439 33.384 4.04484 33.8915 4.04484 34.4208V41.0725C4.04484 41.6017 3.83439 42.1093 3.45979 42.4835C3.08518 42.8578 2.57711 43.068 2.04734 43.068C1.51756 43.068 1.00949 42.8578 0.634883 42.4835C0.260278 42.1093 0.0498268 41.6017 0.0498268 41.0725V34.4208C0.0498268 33.8915 0.260278 33.384 0.634883 33.0097C1.00949 32.6355 1.51756 32.4253 2.04734 32.4253ZM14.6982 26.4387C14.6982 25.9095 14.4878 25.4019 14.1132 25.0277C13.7386 24.6535 13.2305 24.4432 12.7007 24.4432C12.1709 24.4432 11.6629 24.6535 11.2883 25.0277C10.9137 25.4019 10.7032 25.9095 10.7032 26.4387V41.0725C10.7032 41.6017 10.9137 42.1093 11.2883 42.4835C11.6629 42.8578 12.1709 43.068 12.7007 43.068C13.2305 43.068 13.7386 42.8578 14.1132 42.4835C14.4878 42.1093 14.6982 41.6017 14.6982 41.0725V26.4387ZM23.3541 29.7646C23.8839 29.7646 24.3919 29.9748 24.7665 30.3491C25.1412 30.7233 25.3516 31.2309 25.3516 31.7601V41.0725C25.3516 41.6017 25.1412 42.1093 24.7665 42.4835C24.3919 42.8578 23.8839 43.068 23.3541 43.068C22.8243 43.068 22.3162 42.8578 21.9416 42.4835C21.567 42.1093 21.3566 41.6017 21.3566 41.0725V31.7601C21.3566 31.2309 21.567 30.7233 21.9416 30.3491C22.3162 29.9748 22.8243 29.7646 23.3541 29.7646ZM36.005 21.1174C36.005 20.5881 35.7945 20.0806 35.4199 19.7063C35.0453 19.3321 34.5372 19.1219 34.0075 19.1219C33.4777 19.1219 32.9696 19.3321 32.595 19.7063C32.2204 20.0806 32.01 20.5881 32.01 21.1174V41.0725C32.01 41.6017 32.2204 42.1093 32.595 42.4835C32.9696 42.8578 33.4777 43.068 34.0075 43.068C34.5372 43.068 35.0453 42.8578 35.4199 42.4835C35.7945 42.1093 36.005 41.6017 36.005 41.0725V21.1174Z" fill="white"/>
</svg>
