<svg width="60" height="60" viewBox="0 0 60 60" fill="none" xmlns="http://www.w3.org/2000/svg">
<circle cx="30" cy="30" r="30" fill="#B90E0A"/>
<path d="M34.9997 21.6667H24.9997M34.9997 28.3333H24.9997M34.9997 35H28.333M18.333 15H41.6663V45L39.9463 43.5267C39.3422 43.0089 38.5728 42.7243 37.7772 42.7243C36.9815 42.7243 36.2121 43.0089 35.608 43.5267L33.888 45L32.1697 43.5267C31.5654 43.0085 30.7957 42.7236 29.9997 42.7236C29.2037 42.7236 28.4339 43.0085 27.8297 43.5267L26.1113 45L24.3913 43.5267C23.7872 43.0089 23.0178 42.7243 22.2222 42.7243C21.4265 42.7243 20.6571 43.0089 20.053 43.5267L18.333 45V15Z" stroke="white" stroke-width="2" stroke-linecap="round" stroke-linejoin="round"/>
</svg>
