<svg width="200" height="200" viewBox="0 0 200 200" fill="none" xmlns="http://www.w3.org/2000/svg">
<path d="M41.667 183.334C37.0837 183.334 33.1614 181.703 29.9003 178.442C26.6392 175.181 25.0059 171.256 25.0003 166.667V72.7087C22.5003 71.1809 20.4864 69.2031 18.9587 66.7753C17.4309 64.3475 16.667 61.5337 16.667 58.3337V33.3337C16.667 28.7503 18.3003 24.8281 21.567 21.567C24.8337 18.3059 28.7559 16.6725 33.3337 16.667H166.667C171.25 16.667 175.175 18.3003 178.442 21.567C181.709 24.8337 183.339 28.7559 183.334 33.3337V58.3337C183.334 61.5281 182.57 64.342 181.042 66.7753C179.514 69.2087 177.5 71.1837 175 72.7003V166.667C175 171.25 173.37 175.175 170.109 178.442C166.848 181.709 162.923 183.339 158.334 183.334H41.667ZM41.667 75.0003V166.667H158.334V75.0003H41.667ZM33.3337 58.3337H166.667V33.3337H33.3337V58.3337ZM83.3337 116.667H116.667C119.028 116.667 121.009 115.867 122.609 114.267C124.209 112.667 125.006 110.689 125 108.334C124.995 105.978 124.195 104 122.6 102.4C121.006 100.8 119.028 100 116.667 100H83.3337C80.9725 100 78.9948 100.8 77.4003 102.4C75.8059 104 75.0059 105.978 75.0003 108.334C74.9948 110.689 75.7948 112.67 77.4003 114.275C79.0059 115.881 80.9837 116.678 83.3337 116.667Z" fill="white"/>
</svg>
