<svg width="43" height="45" viewBox="0 0 43 45" fill="none" xmlns="http://www.w3.org/2000/svg">
<path d="M27.4936 42.3263L18.1458 32.9857L21.2251 29.9087L27.4936 36.1725L39.9207 23.7549L43 26.8318L27.4936 42.3263ZM39.5908 20.5131H35.1918V9.52412H30.7928V16.1175H8.79795V9.52412H4.39898V40.2933H17.5959V44.689H0V5.12851H13.5818C13.9851 3.84646 14.7732 2.79372 15.9463 1.97027C17.1194 1.14683 18.4024 0.734375 19.7954 0.73291C21.2617 0.73291 22.5726 1.14536 23.7281 1.97027C24.8835 2.79518 25.6622 3.84793 26.0639 5.12851H39.5908V20.5131ZM19.7954 9.52412C20.4186 9.52412 20.9413 9.31313 21.3636 8.89115C21.7859 8.46917 21.9964 7.94756 21.9949 7.32632C21.9934 6.70507 21.7823 6.18346 21.3614 5.76148C20.9406 5.3395 20.4186 5.12851 19.7954 5.12851C19.1722 5.12851 18.6502 5.3395 18.2294 5.76148C17.8085 6.18346 17.5974 6.70507 17.5959 7.32632C17.5944 7.94756 17.8056 8.46991 18.2294 8.89335C18.6531 9.31679 19.1751 9.52705 19.7954 9.52412Z" fill="white"/>
</svg>
