<svg width="60" height="60" viewBox="0 0 60 60" fill="none" xmlns="http://www.w3.org/2000/svg">
<circle cx="30" cy="30" r="30" fill="#B90E0A"/>
<path d="M39.6667 35.2813V38.6113H19.6667V35.2813C19.6667 35.2813 19.6667 28.6213 29.6667 28.6213C39.6667 28.6213 39.6667 35.2813 39.6667 35.2813ZM34.6667 20.2963C34.6667 19.3084 34.3734 18.3426 33.824 17.5212C33.2746 16.6998 32.4937 16.0596 31.5801 15.6815C30.6665 15.3034 29.6611 15.2045 28.6912 15.3972C27.7213 15.59 26.8304 16.0657 26.1311 16.7643C25.4319 17.4628 24.9557 18.3529 24.7627 19.3218C24.5698 20.2907 24.6688 21.2951 25.0473 22.2078C25.4257 23.1205 26.0666 23.9006 26.8888 24.4495C27.7111 24.9983 28.6778 25.2913 29.6667 25.2913C30.9927 25.2913 32.2645 24.765 33.2022 23.8283C34.1399 22.8915 34.6667 21.621 34.6667 20.2963ZM40 28.7212C40.9111 29.5608 41.6456 30.5734 42.1606 31.6997C42.6757 32.8261 42.9611 34.0436 43 35.2813V38.6113H48V35.2813C48 35.2813 48 29.537 40 28.7212ZM38 15.3013C37.4964 15.3013 36.9959 15.3799 36.5167 15.5344C37.4918 16.9313 38.0146 18.5933 38.0146 20.2963C38.0146 21.9993 37.4918 23.6613 36.5167 25.0582C36.9959 25.2126 37.4964 25.2913 38 25.2913C39.3261 25.2913 40.5979 24.765 41.5355 23.8283C42.4732 22.8915 43 21.621 43 20.2963C43 18.9715 42.4732 17.701 41.5355 16.7643C40.5979 15.8275 39.3261 15.3013 38 15.3013ZM21.3333 23.6263H16.3333V18.6313H13V23.6263H8V26.9563H13V31.9513H16.3333V26.9563H21.3333V23.6263Z" fill="white"/>
</svg>
