<svg width="60" height="60" viewBox="0 0 60 60" fill="none" xmlns="http://www.w3.org/2000/svg">
<circle cx="30" cy="30" r="30" fill="#B90E0A"/>
<path d="M26.8987 34.5045C27.6986 35.3037 28.7319 35.6953 29.9985 35.6793C31.265 35.6633 32.1983 35.2051 32.7982 34.3048L43.9974 17.5228L27.1987 28.7108C26.2987 29.3101 25.8241 30.2258 25.7748 31.4578C25.7255 32.6898 26.1001 33.7054 26.8987 34.5045ZM29.9985 11.5293C31.965 11.5293 33.8568 11.8037 35.674 12.3524C37.4912 12.9012 39.1991 13.7256 40.7976 14.8257L36.9979 17.2232C35.898 16.6571 34.7568 16.2329 33.5742 15.9505C32.3916 15.6682 31.1997 15.5263 29.9985 15.525C25.5655 15.525 21.7904 17.082 18.6733 20.196C15.5562 23.3099 13.9984 27.0805 13.9997 31.5078C13.9997 32.9063 14.1917 34.2881 14.5756 35.6533C14.9596 37.0185 15.5009 38.3005 16.1995 39.4992H43.7974C44.564 38.2339 45.1226 36.9186 45.4733 35.5534C45.8239 34.1882 45.9986 32.7731 45.9972 31.308C45.9972 30.1093 45.8552 28.9439 45.5713 27.8118C45.2873 26.6796 44.8626 25.5808 44.2973 24.5153L46.6972 20.7194C47.6971 22.2844 48.489 23.9492 49.073 25.714C49.6569 27.4788 49.9649 29.3101 49.9969 31.2081C50.0289 33.106 49.8123 34.9208 49.347 36.6522C48.8817 38.3837 48.1984 40.0319 47.2971 41.5969C46.9305 42.1963 46.4305 42.6624 45.7972 42.9954C45.1639 43.3284 44.4973 43.4949 43.7974 43.4949H16.1995C15.4996 43.4949 14.833 43.3284 14.1997 42.9954C13.5664 42.6624 13.0664 42.1963 12.6998 41.5969C11.8332 40.0985 11.1666 38.5089 10.6999 36.828C10.2333 35.1472 10 33.3738 10 31.5078C10 28.7441 10.5253 26.1555 11.5759 23.7421C12.6265 21.3287 14.0597 19.2144 15.8755 17.399C17.6914 15.5836 19.8159 14.1518 22.2491 13.1036C24.6822 12.0554 27.2653 11.5306 29.9985 11.5293Z" fill="white"/>
</svg>
