<svg width="44" height="44" viewBox="0 0 44 44" fill="none" xmlns="http://www.w3.org/2000/svg">
<path d="M30.8891 30.5933V12.8333M22.0002 30.5933V19.4933M13.1113 30.5933V23.9333" stroke="white" stroke-width="3" stroke-linecap="round" stroke-linejoin="round"/>
<path d="M2 40.3609V3.06491C2 2.71164 2.14048 2.37284 2.39052 2.12304C2.64057 1.87325 2.97971 1.73291 3.33333 1.73291H40.6667C41.0203 1.73291 41.3594 1.87325 41.6095 2.12304C41.8595 2.37284 42 2.71164 42 3.06491V40.3609C42 40.7142 41.8595 41.053 41.6095 41.3028C41.3594 41.5526 41.0203 41.6929 40.6667 41.6929H3.33333C2.97971 41.6929 2.64057 41.5526 2.39052 41.3028C2.14048 41.053 2 40.7142 2 40.3609Z" stroke="white" stroke-width="3"/>
</svg>
