<svg width="200" height="200" viewBox="0 0 200 200" fill="none" xmlns="http://www.w3.org/2000/svg">
<path d="M71.1667 50.3333H56.1667C68.6667 39.5 83.6667 33.6667 100.333 33.6667C102.833 33.6667 105.333 33.6667 107.833 34.5C112 35.3333 116.167 32 117 27C117.833 22.8333 114.5 18.6667 109.5 17.8333C106.167 17 103.667 17 100.333 17C80.3333 17 61.1667 24.5 46.1667 37V25.3333C46.1667 20.3333 42.8333 17 37.8333 17C32.8333 17 29.5 20.3333 29.5 25.3333V58.6667C29.5 63.6667 32.8333 67 37.8333 67H71.1667C76.1667 67 79.5 63.6667 79.5 58.6667C79.5 53.6667 76.1667 50.3333 71.1667 50.3333ZM58.6667 121.167C53.6667 121.167 50.3333 124.5 50.3333 129.5V144.5C39.5 132 33.6667 117 33.6667 100.333C33.6667 97.8333 33.6667 95.3333 34.5 92.8333C35.3333 88.6667 32 84.5 27 83.6667C22.8333 82.8333 18.6667 86.1667 17.8333 91.1667C17 94.5 17 97 17 100.333C17 120.333 24.5 139.5 37 154.5H25.3333C20.3333 154.5 17 157.833 17 162.833C17 167.833 20.3333 171.167 25.3333 171.167H58.6667C61.1667 171.167 63.6667 169.5 65.3333 167.833C65.3333 167 66.1667 166.167 66.1667 165.333V129.5C67 124.5 63.6667 121.167 58.6667 121.167ZM175.333 46.1667C180.333 46.1667 183.667 42.8333 183.667 37.8333C183.667 32.8333 180.333 29.5 175.333 29.5H140.333C139.5 29.5 138.667 30.3333 137.833 30.3333C137 31.1667 136.167 31.1667 136.167 32C136.167 32.8333 135.333 33.6667 135.333 33.6667V69.5C135.333 74.5 138.667 77.8333 143.667 77.8333C148.667 77.8333 152 74.5 152 69.5V56.1667C162.833 67.8333 168.667 83.6667 168.667 100.333C168.667 102.833 168.667 105.333 167.833 107.833C167 112 170.333 116.167 175.333 117H176.167C180.333 117 183.667 113.667 184.5 109.5C184.5 106.167 185.333 103.667 185.333 100.333C185.333 80.3333 177.833 61.1667 165.333 46.1667H175.333ZM169.5 137.833L167 135.333C166.167 134.5 165.333 134.5 164.5 134.5H129.5C124.5 134.5 121.167 137.833 121.167 142.833C121.167 147.833 124.5 151.167 129.5 151.167H144.5C132.833 162 117 167.833 100.333 167.833C97.8333 167.833 95.3333 167.833 92.8333 167C88.6667 166.167 84.5 169.5 83.6667 174.5C82.8333 179.5 86.1667 182.833 91.1667 183.667C94.5 183.667 97 184.5 100.333 184.5C120.333 184.5 139.5 177 154.5 164.5V175.333C154.5 180.333 157.833 183.667 162.833 183.667C167.833 183.667 171.167 180.333 171.167 175.333V142C171.167 140.333 170.333 138.667 169.5 137.833Z" fill="white"/>
<path d="M67 78H134V123H67V78ZM100.5 89.25C103.462 89.25 106.302 90.4353 108.396 92.545C110.49 94.6548 111.667 97.5163 111.667 100.5C111.667 103.484 110.49 106.345 108.396 108.455C106.302 110.565 103.462 111.75 100.5 111.75C97.5384 111.75 94.6981 110.565 92.604 108.455C90.5098 106.345 89.3333 103.484 89.3333 100.5C89.3333 97.5163 90.5098 94.6548 92.604 92.545C94.6981 90.4353 97.5384 89.25 100.5 89.25ZM81.8889 85.5C81.8889 87.4891 81.1046 89.3968 79.7085 90.8033C78.3124 92.2098 76.4188 93 74.4444 93V108C76.4188 108 78.3124 108.79 79.7085 110.197C81.1046 111.603 81.8889 113.511 81.8889 115.5H119.111C119.111 113.511 119.895 111.603 121.292 110.197C122.688 108.79 124.581 108 126.556 108V93C124.581 93 122.688 92.2098 121.292 90.8033C119.895 89.3968 119.111 87.4891 119.111 85.5H81.8889Z" fill="white"/>
</svg>
